<svg width="50" height="50" viewBox="0 0 50 50" fill="none" xmlns="http://www.w3.org/2000/svg">
<path d="M43.3519 7.06116L40.91 21.0319C40.905 21.0599 40.9069 21.0888 40.9153 21.1157C40.9235 21.1425 40.9381 21.1664 40.9574 21.1848C40.9767 21.2031 41 21.2153 41.0247 21.2201C41.0497 21.2248 41.0753 21.2219 41.0987 21.2117L43.7094 20.1002C43.7157 20.1412 43.722 20.1836 43.7278 20.2229C44.3547 24.6851 43.8954 29.2557 42.399 33.4455C40.9025 37.6353 38.4254 41.2863 35.2329 44.0077C32.0403 46.7289 28.2526 48.418 24.2752 48.8941C20.298 49.3701 16.281 48.6151 12.6545 46.7098C16.4571 49.0921 20.7757 50.2199 25.118 49.9646C29.4604 49.7092 33.6521 48.0815 37.2152 45.2663C40.7786 42.451 43.5702 38.562 45.272 34.0418C46.9738 29.5219 47.5176 24.5527 46.841 19.7007L49.8477 19.9763C49.8733 19.9786 49.8987 19.973 49.9218 19.9602C49.9446 19.9473 49.9639 19.9277 49.9777 19.9034C49.9916 19.8791 49.9991 19.851 50 19.8221C50.0006 19.7933 49.9945 19.7647 49.9819 19.7395L43.6129 7.01285C43.5987 6.9846 43.5771 6.96196 43.5511 6.94796C43.5251 6.93396 43.496 6.92927 43.4677 6.93453C43.4391 6.93979 43.4129 6.95476 43.3922 6.97737C43.3714 7.00001 43.3574 7.02926 43.3519 7.06116Z" fill="url(#paint0_linear_42_60)"/>
<path d="M38.6881 36.2079C36.7156 39.0418 34.1823 41.314 31.292 42.8421C28.4014 44.3701 25.2341 45.1116 22.0442 45.0069C18.8542 44.9023 15.7303 43.9545 12.9232 42.2396C10.1161 40.5244 7.70396 38.09 5.88036 35.1315C4.05674 32.1732 2.8724 28.773 2.42237 25.204C1.97237 21.635 2.2692 17.9966 3.28908 14.5806C4.30893 11.1647 6.02343 8.0663 8.29499 5.53416C10.5665 3.00202 13.3319 1.1066 16.3692 0C12.4554 1.0866 8.89069 3.39395 6.08184 6.65885C3.27297 9.92376 1.33303 14.0147 0.483305 18.4651C-0.366423 22.9154 -0.0917179 27.546 1.27609 31.8284C2.6439 36.111 5.04972 39.8729 8.21911 42.6853C11.3885 45.4977 15.1938 47.2471 19.201 47.7341C23.2082 48.221 27.2559 47.4259 30.8823 45.4394C34.5088 43.4528 37.5679 40.3551 39.7108 36.4992C41.8535 32.6433 42.9938 28.1847 43.0016 23.6321C42.7137 28.2181 41.2107 32.6 38.6881 36.2079Z" fill="url(#paint1_linear_42_60)"/>
<path d="M34.2 11.8554C32.9422 13.6649 31.5119 15.3126 29.9349 16.7687C29.919 16.7835 29.906 16.8022 29.8972 16.8233C29.8884 16.8444 29.8837 16.8675 29.8837 16.8909V39.4968C29.8837 39.6787 29.8326 39.8558 29.7376 40.0027C29.6426 40.1497 29.5089 40.2587 29.3556 40.3141L29.3393 40.32C29.2256 40.3612 29.1051 40.3714 28.9872 40.3499C28.8694 40.3285 28.7577 40.2757 28.6614 40.1964C28.565 40.1168 28.4866 40.0128 28.4325 39.8928C28.3784 39.7725 28.3503 39.6396 28.3503 39.5048V18.4291C28.3503 18.4002 28.3434 18.3717 28.3302 18.3469C28.317 18.3221 28.2979 18.3019 28.275 18.2885C28.2524 18.2751 28.2268 18.269 28.2012 18.2709C28.1757 18.2727 28.1509 18.2825 28.13 18.2991C26.0418 19.9233 23.7653 21.2143 21.3649 22.1358C21.3373 22.1463 21.3132 22.1665 21.296 22.1933C21.279 22.2202 21.2698 22.2524 21.2698 22.2855V40.5426C21.2698 40.6693 21.2448 40.7946 21.1968 40.909C21.1488 41.0236 21.079 41.1248 20.9924 41.2053C20.9056 41.2858 20.8042 41.3434 20.6954 41.3744C20.5866 41.4052 20.4731 41.4085 20.363 41.3839L20.3332 41.3772C20.1615 41.3389 20.007 41.2342 19.8961 41.0812C19.7852 40.9282 19.7248 40.7366 19.7252 40.5389C19.7292 38.5731 19.7332 35.9265 19.7361 35.9284V22.9067C19.7361 22.8824 19.7312 22.8584 19.7216 22.8366C19.7121 22.8149 19.6983 22.7959 19.6812 22.7811C19.6642 22.7663 19.6443 22.7562 19.6232 22.7515C19.6021 22.7468 19.5803 22.7476 19.5596 22.7539L19.4902 22.7745C17.5319 23.3558 15.7993 24.6533 14.5627 26.4644C13.3262 28.2757 12.6555 30.4983 12.6553 32.7854V35.784C12.6557 35.9514 12.6126 36.1155 12.5313 36.2555C12.4501 36.3957 12.3342 36.5058 12.1981 36.5724C12.062 36.6387 11.9116 36.6588 11.7656 36.6297C11.6196 36.6008 11.4843 36.5241 11.3764 36.409C8.36876 33.1435 6.45639 28.8012 5.96508 24.1216C5.47377 19.4421 6.43392 14.7149 8.68197 10.7454C10.93 6.77584 14.3269 3.80954 18.2939 2.3518C22.2608 0.894058 26.5525 1.03507 30.4379 2.75083C27.3788 1.10808 23.9863 0.419903 20.6123 0.757674C17.2383 1.09544 14.0058 2.44685 11.2502 4.6717C8.49447 6.89658 6.31601 9.91383 4.94071 13.4105C3.56544 16.9071 3.04346 20.7557 3.42894 24.5572C3.81441 28.3583 5.0933 31.974 7.13294 35.0287C9.17257 38.0836 11.8986 40.4661 15.0283 41.9295C18.158 43.3927 21.5773 43.8834 24.9314 43.3508C28.2857 42.8179 31.4524 41.2808 34.1035 38.8993C35.0283 38.1783 35.8911 37.3606 36.6798 36.4566L36.7626 36.3564C36.8932 36.1982 36.9658 35.9898 36.9653 35.7733V7.89009C36.9653 7.89009 36.9653 7.79062 36.9653 7.65871C36.9656 7.62344 36.9553 7.5891 36.9364 7.56108C36.9173 7.53309 36.8907 7.51301 36.8605 7.50403C36.8303 7.49506 36.7983 7.49768 36.7695 7.51149C36.7408 7.5253 36.7171 7.5495 36.7018 7.58032C35.9724 9.08001 35.1357 10.5098 34.2 11.8554Z" fill="url(#paint2_linear_42_60)"/>
<defs>
<linearGradient id="paint0_linear_42_60" x1="12.6545" y1="28.4663" x2="50" y2="28.4663" gradientUnits="userSpaceOnUse">
<stop stop-color="#403BEB"/>
<stop offset="1" stop-color="#22B7A0"/>
</linearGradient>
<linearGradient id="paint1_linear_42_60" x1="-2.62644e-08" y1="23.9367" x2="43.0016" y2="23.9367" gradientUnits="userSpaceOnUse">
<stop stop-color="#403BEB"/>
<stop offset="1" stop-color="#22B7A0"/>
</linearGradient>
<linearGradient id="paint2_linear_42_60" x1="3.30562" y1="22.1168" x2="36.9653" y2="22.1168" gradientUnits="userSpaceOnUse">
<stop stop-color="#403BEB"/>
<stop offset="1" stop-color="#22B7A0"/>
</linearGradient>
</defs>
</svg>
